<?xml version="1.0" encoding="UTF-8"?>
<svg xmlns="http://www.w3.org/2000/svg" xmlns:xlink="http://www.w3.org/1999/xlink" width="1920" height="1080" viewBox="0 0 1920 1080">
<defs>
<g>
<g id="glyph-0-0">
<path d="M 6.75 -1.0625 C 5.070312 -1.0625 3.773438 -1.382812 2.859375 -2.03125 C 1.953125 -2.6875 1.5 -3.570312 1.5 -4.6875 C 1.5 -5.226562 1.664062 -5.660156 2 -5.984375 C 2.332031 -6.316406 2.800781 -6.484375 3.40625 -6.484375 C 3.53125 -5.753906 3.703125 -5.0625 3.921875 -4.40625 C 4.148438 -3.757812 4.484375 -3.234375 4.921875 -2.828125 C 5.367188 -2.429688 5.976562 -2.234375 6.75 -2.234375 L 6.75 -8.828125 C 5.644531 -9.328125 4.757812 -9.820312 4.09375 -10.3125 C 3.425781 -10.800781 2.945312 -11.335938 2.65625 -11.921875 C 2.363281 -12.503906 2.21875 -13.1875 2.21875 -13.96875 C 2.21875 -15.1875 2.625 -16.160156 3.4375 -16.890625 C 4.257812 -17.617188 5.363281 -18.050781 6.75 -18.1875 L 6.75 -20.265625 L 8.078125 -20.265625 L 8.078125 -18.25 C 9.679688 -18.207031 10.820312 -17.90625 11.5 -17.34375 C 12.175781 -16.789062 12.515625 -16.09375 12.515625 -15.25 C 12.515625 -14.6875 12.320312 -14.253906 11.9375 -13.953125 C 11.550781 -13.660156 11.039062 -13.515625 10.40625 -13.515625 C 10.40625 -14.035156 10.34375 -14.550781 10.21875 -15.0625 C 10.09375 -15.582031 9.863281 -16.023438 9.53125 -16.390625 C 9.207031 -16.753906 8.722656 -16.960938 8.078125 -17.015625 L 8.078125 -10.796875 C 9.148438 -10.335938 10.050781 -9.867188 10.78125 -9.390625 C 11.519531 -8.910156 12.082031 -8.367188 12.46875 -7.765625 C 12.851562 -7.171875 13.046875 -6.445312 13.046875 -5.59375 C 13.046875 -4.257812 12.613281 -3.21875 11.75 -2.46875 C 10.882812 -1.726562 9.660156 -1.28125 8.078125 -1.125 L 8.078125 2.109375 L 6.75 2.109375 Z M 6.75 -16.96875 C 6.039062 -16.820312 5.503906 -16.492188 5.140625 -15.984375 C 4.785156 -15.484375 4.609375 -14.882812 4.609375 -14.1875 C 4.609375 -13.4375 4.789062 -12.859375 5.15625 -12.453125 C 5.519531 -12.046875 6.050781 -11.691406 6.75 -11.390625 Z M 8.078125 -2.328125 C 8.878906 -2.460938 9.5 -2.78125 9.9375 -3.28125 C 10.375 -3.789062 10.59375 -4.429688 10.59375 -5.203125 C 10.59375 -5.910156 10.40625 -6.488281 10.03125 -6.9375 C 9.65625 -7.394531 9.003906 -7.828125 8.078125 -8.234375 Z "/>
</g>
<g id="glyph-0-1">
<path d="M 1.625 0 L 1.625 -1.953125 L 6.078125 -7.09375 C 7.023438 -8.195312 7.773438 -9.148438 8.328125 -9.953125 C 8.878906 -10.765625 9.273438 -11.535156 9.515625 -12.265625 C 9.753906 -12.992188 9.875 -13.769531 9.875 -14.59375 C 9.875 -15.601562 9.65625 -16.421875 9.21875 -17.046875 C 8.78125 -17.671875 8.085938 -17.984375 7.140625 -17.984375 C 6.347656 -17.984375 5.738281 -17.796875 5.3125 -17.421875 C 4.882812 -17.046875 4.59375 -16.554688 4.4375 -15.953125 C 4.289062 -15.359375 4.21875 -14.707031 4.21875 -14 C 3.570312 -14 3.023438 -14.117188 2.578125 -14.359375 C 2.140625 -14.597656 1.921875 -15.054688 1.921875 -15.734375 C 1.921875 -16.765625 2.359375 -17.617188 3.234375 -18.296875 C 4.117188 -18.972656 5.421875 -19.3125 7.140625 -19.3125 C 8.835938 -19.3125 10.164062 -18.90625 11.125 -18.09375 C 12.082031 -17.289062 12.5625 -16.210938 12.5625 -14.859375 C 12.5625 -13.609375 12.171875 -12.390625 11.390625 -11.203125 C 10.609375 -10.023438 9.515625 -8.664062 8.109375 -7.125 L 3.59375 -2.140625 L 9.765625 -2.140625 C 10.566406 -2.140625 11.109375 -2.34375 11.390625 -2.75 C 11.671875 -3.15625 11.875 -3.617188 12 -4.140625 L 12.109375 -4.609375 L 13.234375 -4.609375 L 13.09375 0 Z "/>
</g>
<g id="glyph-0-2">
<path d="M 7.46875 0.265625 C 6.007812 0.265625 4.816406 -0.140625 3.890625 -0.953125 C 2.960938 -1.773438 2.28125 -2.921875 1.84375 -4.390625 C 1.414062 -5.867188 1.203125 -7.597656 1.203125 -9.578125 C 1.203125 -11.546875 1.414062 -13.257812 1.84375 -14.71875 C 2.28125 -16.175781 2.960938 -17.304688 3.890625 -18.109375 C 4.816406 -18.910156 6.019531 -19.3125 7.5 -19.3125 C 8.882812 -19.3125 10.035156 -18.910156 10.953125 -18.109375 C 11.878906 -17.304688 12.566406 -16.171875 13.015625 -14.703125 C 13.472656 -13.242188 13.703125 -11.523438 13.703125 -9.546875 C 13.703125 -7.578125 13.472656 -5.859375 13.015625 -4.390625 C 12.554688 -2.921875 11.867188 -1.773438 10.953125 -0.953125 C 10.035156 -0.140625 8.875 0.265625 7.46875 0.265625 Z M 7.46875 -1.171875 C 8.769531 -1.171875 9.671875 -1.90625 10.171875 -3.375 C 10.679688 -4.851562 10.9375 -6.910156 10.9375 -9.546875 C 10.9375 -12.191406 10.679688 -14.238281 10.171875 -15.6875 C 9.671875 -17.144531 8.78125 -17.875 7.5 -17.875 C 6.195312 -17.875 5.28125 -17.144531 4.75 -15.6875 C 4.226562 -14.238281 3.96875 -12.191406 3.96875 -9.546875 C 3.96875 -6.910156 4.222656 -4.851562 4.734375 -3.375 C 5.253906 -1.90625 6.164062 -1.171875 7.46875 -1.171875 Z "/>
</g>
</g>
</defs>
<g fill="rgb(96.078431%, 96.862745%, 98.039216%)" fill-opacity="1">
<use xlink:href="#glyph-0-0" x="30" y="48.506836"/>
<use xlink:href="#glyph-0-1" x="45" y="48.506836"/>
<use xlink:href="#glyph-0-2" x="60" y="48.506836"/>
<use xlink:href="#glyph-0-2" x="75" y="48.506836"/>
</g>
</svg>
