<?xml version="1.0" encoding="UTF-8"?>
<svg xmlns="http://www.w3.org/2000/svg" xmlns:xlink="http://www.w3.org/1999/xlink" width="1920" height="1080" viewBox="0 0 1920 1080">
<defs>
<g>
<g id="glyph-0-0">
<path d="M 1.546875 -10.3125 C 1.441406 -10.675781 1.296875 -10.914062 1.109375 -11.03125 C 0.929688 -11.144531 0.679688 -11.203125 0.359375 -11.203125 L 0.15625 -11.203125 L 0.15625 -11.90625 L 4.734375 -11.90625 L 4.734375 -11.203125 L 4.34375 -11.203125 C 3.675781 -11.203125 3.34375 -10.9375 3.34375 -10.40625 C 3.34375 -10.3125 3.359375 -10.210938 3.390625 -10.109375 C 3.421875 -10.015625 3.453125 -9.90625 3.484375 -9.78125 L 5.015625 -4.453125 C 5.160156 -3.953125 5.296875 -3.457031 5.421875 -2.96875 C 5.546875 -2.476562 5.648438 -2.035156 5.734375 -1.640625 C 5.828125 -2.066406 5.925781 -2.535156 6.03125 -3.046875 C 6.144531 -3.566406 6.273438 -4.097656 6.421875 -4.640625 L 8.40625 -11.78125 L 9.609375 -11.78125 L 11.6875 -4.5625 C 11.84375 -4.019531 11.976562 -3.492188 12.09375 -2.984375 C 12.21875 -2.472656 12.320312 -2.023438 12.40625 -1.640625 C 12.488281 -2.035156 12.582031 -2.453125 12.6875 -2.890625 C 12.800781 -3.335938 12.929688 -3.832031 13.078125 -4.375 L 14.53125 -9.515625 C 14.570312 -9.648438 14.613281 -9.804688 14.65625 -9.984375 C 14.695312 -10.160156 14.71875 -10.296875 14.71875 -10.390625 C 14.71875 -10.929688 14.351562 -11.203125 13.625 -11.203125 L 13.234375 -11.203125 L 13.234375 -11.90625 L 17.3125 -11.90625 L 17.3125 -11.203125 L 16.984375 -11.203125 C 16.660156 -11.203125 16.40625 -11.125 16.21875 -10.96875 C 16.039062 -10.8125 15.875 -10.457031 15.71875 -9.90625 L 12.90625 0 L 11.40625 0 L 8.6875 -9.34375 L 6.140625 0 L 4.59375 0 Z "/>
</g>
<g id="glyph-0-1">
<path d="M 0 0 L 0 -0.703125 L 0.3125 -0.703125 C 0.632812 -0.703125 0.875 -0.785156 1.03125 -0.953125 C 1.195312 -1.117188 1.378906 -1.46875 1.578125 -2 L 5.28125 -11.90625 L 6.578125 -11.90625 L 10.359375 -1.578125 C 10.472656 -1.234375 10.613281 -1 10.78125 -0.875 C 10.957031 -0.757812 11.207031 -0.703125 11.53125 -0.703125 L 11.75 -0.703125 L 11.75 0 L 7.171875 0 L 7.171875 -0.703125 L 7.546875 -0.703125 C 8.210938 -0.703125 8.546875 -0.96875 8.546875 -1.5 C 8.546875 -1.59375 8.535156 -1.6875 8.515625 -1.78125 C 8.492188 -1.882812 8.460938 -2 8.421875 -2.125 L 7.75 -3.984375 L 3.375 -3.984375 L 2.734375 -2.234375 C 2.628906 -1.960938 2.578125 -1.722656 2.578125 -1.515625 C 2.578125 -0.972656 2.945312 -0.703125 3.6875 -0.703125 L 4.0625 -0.703125 L 4.0625 0 Z M 3.6875 -4.8125 L 7.453125 -4.8125 L 6.421875 -7.734375 C 6.242188 -8.222656 6.082031 -8.679688 5.9375 -9.109375 C 5.789062 -9.546875 5.671875 -9.96875 5.578125 -10.375 C 5.503906 -9.96875 5.40625 -9.582031 5.28125 -9.21875 C 5.164062 -8.851562 5.007812 -8.410156 4.8125 -7.890625 Z "/>
</g>
<g id="glyph-0-2">
<path d="M 0.640625 0 L 0.640625 -0.703125 L 0.84375 -0.703125 C 1.21875 -0.703125 1.539062 -0.765625 1.8125 -0.890625 C 2.082031 -1.015625 2.21875 -1.320312 2.21875 -1.8125 L 2.21875 -10.0625 C 2.21875 -10.550781 2.082031 -10.863281 1.8125 -11 C 1.539062 -11.132812 1.21875 -11.203125 0.84375 -11.203125 L 0.640625 -11.203125 L 0.640625 -11.90625 L 5.125 -11.90625 C 7.976562 -11.90625 9.40625 -10.832031 9.40625 -8.6875 C 9.40625 -8.09375 9.28125 -7.59375 9.03125 -7.1875 C 8.789062 -6.78125 8.484375 -6.457031 8.109375 -6.21875 C 7.734375 -5.976562 7.347656 -5.789062 6.953125 -5.65625 L 9.234375 -2.03125 C 9.523438 -1.582031 9.800781 -1.25 10.0625 -1.03125 C 10.332031 -0.8125 10.640625 -0.703125 10.984375 -0.703125 L 11.03125 -0.703125 L 11.03125 0 L 10.796875 0 C 10.109375 0 9.570312 -0.0351562 9.1875 -0.109375 C 8.8125 -0.179688 8.503906 -0.320312 8.265625 -0.53125 C 8.035156 -0.75 7.789062 -1.070312 7.53125 -1.5 L 5.28125 -5.25 L 3.90625 -5.25 L 3.90625 -1.8125 C 3.90625 -1.320312 4.039062 -1.015625 4.3125 -0.890625 C 4.582031 -0.765625 4.898438 -0.703125 5.265625 -0.703125 L 5.484375 -0.703125 L 5.484375 0 Z M 5.0625 -6.03125 C 6.039062 -6.03125 6.710938 -6.242188 7.078125 -6.671875 C 7.441406 -7.109375 7.625 -7.765625 7.625 -8.640625 C 7.625 -9.523438 7.425781 -10.15625 7.03125 -10.53125 C 6.644531 -10.914062 5.976562 -11.109375 5.03125 -11.109375 L 3.90625 -11.109375 L 3.90625 -6.03125 Z "/>
</g>
<g id="glyph-0-3">
<path d="M 0.640625 0 L 0.640625 -0.703125 L 0.84375 -0.703125 C 1.226562 -0.703125 1.550781 -0.769531 1.8125 -0.90625 C 2.082031 -1.039062 2.21875 -1.375 2.21875 -1.90625 L 2.21875 -10.0625 C 2.21875 -10.550781 2.082031 -10.863281 1.8125 -11 C 1.539062 -11.132812 1.21875 -11.203125 0.84375 -11.203125 L 0.640625 -11.203125 L 0.640625 -11.90625 L 3.6875 -11.90625 L 9.65625 -2.6875 L 9.65625 -10.0625 C 9.65625 -10.550781 9.519531 -10.863281 9.25 -11 C 8.976562 -11.132812 8.65625 -11.203125 8.28125 -11.203125 L 8.0625 -11.203125 L 8.0625 -11.90625 L 12.25 -11.90625 L 12.25 -11.203125 L 12.03125 -11.203125 C 11.65625 -11.203125 11.332031 -11.128906 11.0625 -10.984375 C 10.800781 -10.847656 10.671875 -10.519531 10.671875 -10 L 10.671875 0 L 9.484375 0 L 3.234375 -9.609375 L 3.234375 -1.90625 C 3.234375 -1.375 3.363281 -1.039062 3.625 -0.90625 C 3.894531 -0.769531 4.21875 -0.703125 4.59375 -0.703125 L 4.8125 -0.703125 L 4.8125 0 Z "/>
</g>
<g id="glyph-0-4">
<path d="M 0.640625 0 L 0.640625 -0.703125 L 0.84375 -0.703125 C 1.226562 -0.703125 1.550781 -0.769531 1.8125 -0.90625 C 2.082031 -1.039062 2.21875 -1.375 2.21875 -1.90625 L 2.21875 -10 C 2.21875 -10.519531 2.082031 -10.847656 1.8125 -10.984375 C 1.550781 -11.128906 1.226562 -11.203125 0.84375 -11.203125 L 0.640625 -11.203125 L 0.640625 -11.90625 L 5.484375 -11.90625 L 5.484375 -11.203125 L 5.265625 -11.203125 C 4.890625 -11.203125 4.566406 -11.128906 4.296875 -10.984375 C 4.035156 -10.847656 3.90625 -10.519531 3.90625 -10 L 3.90625 -1.90625 C 3.90625 -1.375 4.035156 -1.039062 4.296875 -0.90625 C 4.566406 -0.769531 4.890625 -0.703125 5.265625 -0.703125 L 5.484375 -0.703125 L 5.484375 0 Z "/>
</g>
<g id="glyph-0-5">
<path d="M 6.6875 0.171875 C 5.394531 0.171875 4.320312 -0.0820312 3.46875 -0.59375 C 2.625 -1.101562 1.992188 -1.816406 1.578125 -2.734375 C 1.160156 -3.660156 0.953125 -4.738281 0.953125 -5.96875 C 0.953125 -7.164062 1.171875 -8.222656 1.609375 -9.140625 C 2.046875 -10.054688 2.695312 -10.773438 3.5625 -11.296875 C 4.4375 -11.816406 5.507812 -12.078125 6.78125 -12.078125 C 8.019531 -12.078125 8.941406 -11.894531 9.546875 -11.53125 C 10.160156 -11.175781 10.46875 -10.734375 10.46875 -10.203125 C 10.46875 -9.847656 10.316406 -9.5625 10.015625 -9.34375 C 9.710938 -9.132812 9.347656 -9.03125 8.921875 -9.03125 C 8.921875 -9.375 8.847656 -9.707031 8.703125 -10.03125 C 8.566406 -10.363281 8.335938 -10.640625 8.015625 -10.859375 C 7.691406 -11.078125 7.257812 -11.1875 6.71875 -11.1875 C 5.300781 -11.1875 4.289062 -10.734375 3.6875 -9.828125 C 3.09375 -8.921875 2.796875 -7.632812 2.796875 -5.96875 C 2.796875 -4.300781 3.109375 -3.019531 3.734375 -2.125 C 4.367188 -1.226562 5.441406 -0.78125 6.953125 -0.78125 C 7.273438 -0.78125 7.585938 -0.796875 7.890625 -0.828125 C 8.191406 -0.867188 8.457031 -0.921875 8.6875 -0.984375 L 8.6875 -3.671875 C 8.6875 -4.160156 8.550781 -4.46875 8.28125 -4.59375 C 8.007812 -4.726562 7.6875 -4.796875 7.3125 -4.796875 L 7.25 -4.796875 L 7.25 -5.5 L 11.59375 -5.5 L 11.59375 -4.796875 L 11.515625 -4.796875 C 11.203125 -4.796875 10.929688 -4.726562 10.703125 -4.59375 C 10.484375 -4.457031 10.375 -4.125 10.375 -3.59375 L 10.375 -0.59375 C 9.8125 -0.34375 9.234375 -0.148438 8.640625 -0.015625 C 8.054688 0.109375 7.40625 0.171875 6.6875 0.171875 Z "/>
</g>
<g id="glyph-0-6">
</g>
<g id="glyph-0-7">
<path d="M 4.125 0.171875 C 3.03125 0.171875 2.203125 -0.046875 1.640625 -0.484375 C 1.078125 -0.921875 0.796875 -1.488281 0.796875 -2.1875 C 0.796875 -2.519531 0.898438 -2.785156 1.109375 -2.984375 C 1.328125 -3.191406 1.625 -3.296875 2 -3.296875 C 2.019531 -2.847656 2.109375 -2.421875 2.265625 -2.015625 C 2.421875 -1.609375 2.660156 -1.28125 2.984375 -1.03125 C 3.304688 -0.78125 3.726562 -0.65625 4.25 -0.65625 C 5 -0.65625 5.582031 -0.832031 6 -1.1875 C 6.425781 -1.550781 6.640625 -2.070312 6.640625 -2.75 C 6.640625 -3.164062 6.554688 -3.515625 6.390625 -3.796875 C 6.234375 -4.078125 5.96875 -4.335938 5.59375 -4.578125 C 5.21875 -4.828125 4.703125 -5.085938 4.046875 -5.359375 C 3.015625 -5.773438 2.242188 -6.265625 1.734375 -6.828125 C 1.234375 -7.398438 0.984375 -8.140625 0.984375 -9.046875 C 0.984375 -9.679688 1.140625 -10.222656 1.453125 -10.671875 C 1.773438 -11.128906 2.207031 -11.476562 2.75 -11.71875 C 3.300781 -11.957031 3.929688 -12.078125 4.640625 -12.078125 C 5.628906 -12.078125 6.394531 -11.882812 6.9375 -11.5 C 7.476562 -11.125 7.75 -10.691406 7.75 -10.203125 C 7.75 -9.847656 7.628906 -9.578125 7.390625 -9.390625 C 7.148438 -9.210938 6.832031 -9.125 6.4375 -9.125 C 6.4375 -9.46875 6.375 -9.800781 6.25 -10.125 C 6.132812 -10.445312 5.941406 -10.710938 5.671875 -10.921875 C 5.398438 -11.128906 5.03125 -11.234375 4.5625 -11.234375 C 3.914062 -11.234375 3.414062 -11.0625 3.0625 -10.71875 C 2.707031 -10.375 2.53125 -9.914062 2.53125 -9.34375 C 2.53125 -8.894531 2.609375 -8.515625 2.765625 -8.203125 C 2.929688 -7.898438 3.203125 -7.628906 3.578125 -7.390625 C 3.960938 -7.148438 4.476562 -6.898438 5.125 -6.640625 C 6.09375 -6.234375 6.847656 -5.769531 7.390625 -5.25 C 7.941406 -4.726562 8.21875 -4.039062 8.21875 -3.1875 C 8.21875 -2.125 7.847656 -1.296875 7.109375 -0.703125 C 6.367188 -0.117188 5.375 0.171875 4.125 0.171875 Z "/>
</g>
</g>
</defs>
<g fill="rgb(96.078431%, 96.862745%, 98.039216%)" fill-opacity="1">
<use xlink:href="#glyph-0-0" x="30" y="37.817383"/>
<use xlink:href="#glyph-0-1" x="46" y="37.817383"/>
<use xlink:href="#glyph-0-2" x="58" y="37.817383"/>
<use xlink:href="#glyph-0-3" x="69" y="37.817383"/>
<use xlink:href="#glyph-0-4" x="82" y="37.817383"/>
<use xlink:href="#glyph-0-3" x="88" y="37.817383"/>
<use xlink:href="#glyph-0-5" x="101" y="37.817383"/>
<use xlink:href="#glyph-0-6" x="113" y="37.817383"/>
<use xlink:href="#glyph-0-7" x="117" y="37.817383"/>
<use xlink:href="#glyph-0-4" x="126" y="37.817383"/>
<use xlink:href="#glyph-0-5" x="132" y="37.817383"/>
<use xlink:href="#glyph-0-3" x="144" y="37.817383"/>
<use xlink:href="#glyph-0-7" x="157" y="37.817383"/>
</g>
</svg>
